# Blender3D v249 OBJ File: scale.blend
# www.blender3d.org
v 0.105178 -1.041852 1.159465
v -0.004116 -0.000350 0.212570
v 0.105178 1.041151 1.159466
v 0.143670 -1.517035 2.032128
v 0.143670 1.516335 2.032128
v 0.152068 -1.517035 2.674275
v 0.152068 1.516335 2.674276
v 0.105178 1.047397 3.283494
v 0.105178 -1.040939 3.262017
v 0.226747 -0.000350 1.159466
v 0.317760 -0.000350 2.032128
v 0.197826 -0.000350 2.674275
v 0.105178 0.450657 3.233381
v 0.105178 -0.336816 3.190428
v -0.113410 -0.336816 3.190428
v -0.113410 0.450657 3.233381
v -0.266836 -0.000350 2.674275
v -0.307916 -0.000350 2.032128
v -0.234028 -0.000350 1.159466
v -0.113410 -1.040939 3.262017
v -0.113410 1.047397 3.283493
v -0.164994 1.516335 2.674276
v -0.164994 -1.517035 2.674275
v -0.148847 1.516335 2.032128
v -0.148847 -1.517035 2.032128
v -0.113409 1.041151 1.159466
v -0.113410 -1.041852 1.159466
vt 0.971424 0.638361
vt 0.853242 0.418060
vt 0.796581 0.579843
vt 0.623433 0.516485
vt 0.273649 0.703577
vt 0.121971 0.456673
vt 0.081091 0.477462
vt 0.541417 0.581838
vt 0.514008 0.546297
vt 0.319993 0.499442
vt 0.654871 0.207800
vt 0.558778 0.137352
vt 0.399287 0.171889
vt 0.666371 0.320305
vt 0.250519 0.061071
vt 0.145049 0.067141
vt 0.081949 0.176092
vt 0.634134 0.416953
vt 0.362223 0.320620
vt 0.067554 0.282852
vt 0.679886 0.445648
vt 0.011209 0.289590
vt 0.730736 0.326021
vt 0.015254 0.150924
vt 0.688317 0.186694
vt 0.125620 0.024544
vt 0.255713 0.014676
vt 0.431065 0.039479
vt 0.579138 0.092983
vt 0.708378 0.831689
vt 0.734308 0.938415
vt 0.847621 0.990619
vt 0.960913 0.919836
vt 0.456028 0.743011
vt 0.497868 0.872176
vt 0.599942 0.899087
vt 0.746278 0.723473
vt 0.998261 0.812969
vt 0.493518 0.636194
vn 0.598102 -0.608295 -0.521714
vn 0.000000 0.000000 -1.000000
vn 0.985382 0.000000 -0.170202
vn 0.598102 0.608295 -0.521714
vn -0.608081 0.602954 -0.516343
vn -0.608081 -0.602954 -0.516343
vn -0.987091 0.000000 -0.160070
vn -0.529710 -0.306345 0.790887
vn -0.468459 0.412854 0.781060
vn -0.700522 0.037233 0.712607
vn -0.600635 -0.748894 0.279916
vn -0.571947 -0.334788 0.748833
vn -0.544877 0.323618 0.773522
vn -0.663076 0.700949 0.262581
vn -0.635487 -0.744560 -0.204291
vn -0.999817 0.000000 -0.018281
vn -0.635487 0.744560 -0.204291
vn 0.687246 -0.703787 -0.179785
vn 0.687246 0.703787 -0.179785
vn 0.601886 -0.747429 0.281167
vn 0.636616 0.723960 0.265603
vn 0.542802 -0.305338 0.782373
vn 0.547197 0.321604 0.772698
vn 0.569384 -0.354991 0.741447
vn 0.725791 0.033906 0.687063
vn 0.511582 0.413862 0.752953
vn 0.999268 0.000000 0.037965
usemtl None_alert1.png
s 1
f 1/1/1 2/2/2 10/3/3
f 10/3/3 2/2/2 3/4/4
f 2/5/2 26/6/5 3/7/4
f 1/8/1 27/9/6 2/5/2
f 2/5/2 27/9/6 19/10/7
f 2/5/2 19/10/7 26/6/5
f 20/11/8 15/12/9 17/13/10
f 20/11/8 17/13/10 23/14/11
f 16/15/12 21/16/13 22/17/14
f 16/15/12 22/17/14 17/13/10
f 23/14/11 17/13/10 25/18/15
f 17/13/10 18/19/16 25/18/15
f 17/13/10 22/17/14 24/20/17
f 17/13/10 24/20/17 18/19/16
f 25/18/15 18/19/16 27/9/6
f 18/19/16 19/10/7 27/9/6
f 18/19/16 24/20/17 26/6/5
f 18/19/16 26/6/5 19/10/7
f 27/9/6 1/8/1 25/18/15
f 1/8/1 4/21/18 25/18/15
f 3/7/4 26/6/5 24/20/17
f 3/7/4 24/20/17 5/22/19
f 6/23/20 23/14/11 25/18/15
f 6/23/20 25/18/15 4/21/18
f 5/22/19 24/20/17 7/24/21
f 24/20/17 22/17/14 7/24/21
f 9/25/22 20/11/8 6/23/20
f 20/11/8 23/14/11 6/23/20
f 7/24/21 22/17/14 21/16/13
f 7/24/21 21/16/13 8/26/23
f 13/27/24 16/15/12 12/28/25
f 16/15/12 17/13/10 12/28/25
f 8/26/23 21/16/13 16/15/12
f 8/26/23 16/15/12 13/27/24
f 14/29/26 15/12/9 20/11/8
f 14/29/26 20/11/8 9/25/22
f 12/28/25 17/13/10 15/12/9
f 12/28/25 15/12/9 14/29/26
f 12/30/25 14/31/26 9/32/22
f 12/30/25 9/32/22 6/33/20
f 7/34/21 8/35/23 13/36/24
f 7/34/21 13/36/24 12/30/25
f 11/37/27 12/30/25 4/38/18
f 12/30/25 6/33/20 4/38/18
f 5/39/19 7/34/21 12/30/25
f 5/39/19 12/30/25 11/37/27
f 4/38/18 1/1/1 11/37/27
f 1/1/1 10/3/3 11/37/27
f 3/4/4 5/39/19 11/37/27
f 3/4/4 11/37/27 10/3/3
